<?xml version="1.0" encoding="UTF-8"?>
<svg id="Layer_2" xmlns="http://www.w3.org/2000/svg" viewBox="0 0 297.68 74.59">
  <defs>
    <style>
      .cls-1 {
        fill: #00076f;
      }

      .cls-2 {
        fill: #005d6c;
      }
    </style>
  </defs>
  <g id="Layer_1-2" data-name="Layer_1">
    <g>
      <g>
        <g>
          <path class="cls-2" d="M208.22,66.59c-1.54-1.81-4.61-5.45-7.01-8.3l-2.25-2.67c-.25-.3-.6-.71-1.07-.75-.59-.05-1.18-.03-1.81-.02-.33,0-.67.02-1.04.02h-2.09s1.82,1.03,1.82,1.03c.07.04,1.66.96,1.66,3.33,0,3.94.01,12.66.01,12.66v.55h3.37v-10.34c1.65,1.97,5.09,6.1,7.56,9.08.91,1.11,1.78,1.35,2.66,1.35.34,0,.69-.04,1.04-.07l.59-.06v-17.47h-3.44v11.68Z"/>
          <path class="cls-2" d="M182.05,68.46c0-.88.01-1.7-.02-2.55,0-.19.06-.37.2-.51.14-.14.32-.22.52-.22h5.96v-3.59h-6.59v-3.26h9.09v-3.41h-12.6v17.5h13.62v-3.38h-10.18c0-.19,0-.39,0-.58Z"/>
          <path class="cls-2" d="M172.88,55.21c-.5,1.33-3.63,8.94-5.15,12.63-1.09-2.66-3.66-8.98-5.14-12.65l-.14-.34h-3.74l.31.75c.04.1,4.11,10.14,6.04,14.78.8,1.93,1,2.07,3.07,2.11h.11s.04,0,.06,0c.85,0,1.36-.34,1.69-1.14.91-2.22,2.28-5.5,3.53-8.5,1.88-4.52,2.94-7.08,3.01-7.27l.25-.73h-3.76l-.13.35Z"/>
          <polygon class="cls-2" points="213.23 58.37 219.1 58.37 219.1 72.42 222.46 72.42 222.46 58.35 228.23 58.35 228.23 54.93 213.23 54.93 213.23 58.37"/>
          <path class="cls-2" d="M246.13,56.31c0-.21-.02-.41-.03-.6,0-.09-.01-.18-.02-.27l-.03-.51h-3.25v1.55c0,.88,0,1.75,0,2.63,0,2,0,4.07-.01,6.11-.02,2.04-.92,3.23-2.76,3.63-.77.17-1.56.22-2.3.16-2.61-.23-3.72-1.46-3.74-4.1,0-1.74,0-3.49,0-5.23,0-1.08,0-2.17,0-3.25,0-.22-.01-.44-.03-.66,0-.1-.01-.2-.02-.31l-.03-.52h-3.02l-.12.37s-.02.05-.03.07c-.04.09-.09.21-.09.37,0,.99,0,1.98-.01,2.96-.02,2.4-.03,4.89.05,7.34.09,2.59,1.38,4.53,3.74,5.61,1.34.62,2.74.75,3.92.75.27,0,.53,0,.77-.02,4.44-.18,7-2.83,7.02-7.25,0-2.5,0-5.01,0-7.51v-1.32Z"/>
          <path class="cls-2" d="M261.26,68.58c-.73-.58-1.02-1.4-1.35-2.36-.11-.32-.22-.65-.36-.97,2.68-.99,3.9-3.05,3.54-5.96-.32-2.55-2.35-4.32-5.07-4.42l-9.77-.02v17.48h3.44v-.55c0-.52,0-1.04,0-1.56,0-1.34.01-2.6-.02-3.9-.01-.42.07-.43.27-.45.73-.08,1.47-.14,2.19-.2.54-.05,1.09-.09,1.63-.14.02,0,.04,0,.05,0,.02,0,.03,0,.04,0,0,0,.04.04.1.17.15.32.3.64.45.96.53,1.13,1.07,2.3,1.7,3.42.83,1.47,2.45,2.34,4.18,2.34.38,0,.76-.04,1.13-.13l.43-.1v-3.09h-.53c-1.46-.05-1.69-.24-2.05-.52ZM251.71,58.31c.5,0,.99,0,1.49-.01,1.53-.02,3.12-.03,4.67.02.7.03,1.24.27,1.55.69.33.45.39,1.1.18,1.84-.08.28-.33,1.15-2.1,1.24l-.29.02c-1.77.09-3.92.2-5.5.48v-4.27Z"/>
          <path class="cls-2" d="M270.33,68.46c0-.88.01-1.7-.02-2.55,0-.19.06-.37.2-.51.14-.14.32-.22.52-.22h5.96v-3.59h-6.59v-3.26h9.09v-3.41h-12.6v17.5h13.62v-3.38h-10.18c0-.2,0-.39,0-.58Z"/>
          <path class="cls-2" d="M297.47,64.94c-.41-1.74-1.69-2.86-3.71-3.22-.86-.16-1.73-.22-2.58-.28-.5-.04-1.03-.07-1.53-.13-.57-.06-1.28-.14-1.87-.36-.3-.11-.52-.3-.63-.54-.12-.27-.11-.61.03-.97.33-.84,1.01-1.35,2.01-1.53,1.58-.28,3.1.06,4.52,1.03.21.14.41.29.62.44l.73.52,2.05-2.42-.32-.36c-1.89-2.07-5.43-3.19-8.25-2.63-1.71.34-3.06,1.15-4.03,2.38-1.03,1.31-1.37,2.9-.95,4.36.38,1.35,1.39,2.41,2.76,2.9.69.25,1.48.42,2.42.51.64.06,1.29.08,1.92.09.45.01.91.02,1.35.05.85.05,1.46.29,1.82.7.29.33.41.8.35,1.39-.05.61-.38,1.07-1.07,1.48-1.7,1.03-4.47.87-6.45-.37-.37-.23-.95-.68-1.36-1.19l-.38-.47-2.38,2.35.34.39c1.97,2.24,4.53,3.44,7.28,3.44.32,0,.63-.02.95-.05,2.05-.2,3.64-.84,4.88-1.96,1.53-1.38,2.03-3.25,1.49-5.56Z"/>
        </g>
        <g>
          <path class="cls-1" d="M209.92,1.55c-2.23,2.67-6.52,8.11-9.98,12.48-1.56,1.98-2.97,3.76-3.8,4.79-.4-.51-.94-1.21-1.53-1.96-3.13-4.02-8.97-11.5-12.15-15.31l-.26-.3h-9.77l1.15,1.39c.28.34.56.67.82.99.94,1.13,1.75,2.1,2.46,3.11.4.58.67,1.3.67,1.83.05,8.01.04,23.52.03,29.82v1.28s6.93,0,6.93,0V15.85l11.66,14.04,11.82-14.12v23.86h6.87v-1.36c0-7.84,0-22.12.04-29.72,0-.53.27-1.25.68-1.83.66-.94,1.4-1.81,2.26-2.82.34-.4.69-.82,1.06-1.26l1.15-1.39h-9.86l-.25.31ZM208.5,13.83h0s0,0,0,0Z"/>
          <path class="cls-1" d="M147.32,31.91c-1.73-1.36-2.41-3.34-3.14-5.43-.29-.83-.58-1.67-.95-2.51.07-.02.13-.05.19-.07,5.92-2.11,8.63-6.6,7.83-12.98-.7-5.58-5.09-9.46-10.96-9.67h-21.44v38.38h6.95v-.85c0-1.17,0-2.33.01-3.48.01-2.99.03-5.82-.05-8.71-.03-1.2.35-1.33.94-1.39,1.63-.18,3.3-.32,4.92-.45,1.21-.1,2.41-.2,3.62-.32.35-.03.51-.02.79.58.34.71.67,1.43,1.01,2.15,1.17,2.52,2.39,5.13,3.78,7.6,1.78,3.16,5.28,5.04,9.01,5.04.81,0,1.63-.09,2.45-.27l.66-.15v-6.23l-.83-.02c-3.22-.08-3.89-.49-4.79-1.2ZM125.85,8.29c1.23,0,2.47-.02,3.7-.03,3.43-.04,6.97-.08,10.44.05,1.69.06,2.99.65,3.75,1.7.8,1.1.96,2.67.45,4.42-.54,1.87-2.23,2.89-5.02,3.04l-.65.03c-4.11.21-9.14.47-12.67,1.14v-10.36Z"/>
          <path class="cls-1" d="M259.45,1.24h-6.9v.95c0,2.8,0,17.1-.17,23.8-.08,3.27-2.15,5.86-5.54,6.92-2.5.78-5.14.91-7.84.39-4.92-.95-7.18-3.62-7.32-8.67-.04-1.26-.03-8.01-.03-13.96,0-3.47,0-6.72,0-8.58v-.85h-6.89v.84c-.01.16-.21,16.19-.01,23.87.14,5.51,2.68,9.77,7.32,12.31,2.88,1.58,6.06,2.36,9.63,2.36,1.56,0,3.19-.15,4.9-.44,6.47-1.12,10.56-4.61,12.15-10.38.46-1.67.71-3.6.73-5.76.07-6.78.02-21.42,0-21.98l-.04-.81Z"/>
          <rect class="cls-1" x="160.41" y="1.24" width="6.7" height="38.44"/>
          <path class="cls-1" d="M102.71,1.24h-21.44v38.38h6.95v-.85c0-1.17,0-2.33.01-3.48.01-2.99.03-5.82-.05-8.71-.03-1.2.35-1.33.94-1.39h0c1.83-.2,3.7-.33,7.79-.62,2.19-.16,4.99-.36,8.72-.63,2.39-.18,4.4-1.19,5.82-2.92,1.93-2.35,2.74-6.04,2.23-10.1-.7-5.58-5.09-9.46-10.96-9.67ZM88.26,8.29c1.23,0,2.47-.02,3.7-.03,3.43-.04,6.97-.08,10.44.05,1.69.06,2.99.65,3.75,1.7.8,1.1.96,2.67.45,4.42-.54,1.87-2.23,2.89-5.02,3.04l-.65.03c-4.11.21-9.14.47-12.67,1.14v-10.36Z"/>
          <path class="cls-1" d="M297.22,22.95c-.89-3.77-3.67-6.19-8.05-6.99-1.86-.34-3.76-.47-5.59-.61-1.09-.08-2.22-.16-3.32-.28-1.23-.14-2.77-.31-4.05-.78-.66-.24-1.13-.64-1.37-1.17-.26-.59-.24-1.33.07-2.1.72-1.81,2.18-2.93,4.35-3.32,3.42-.61,6.72.14,9.79,2.24.45.31.89.62,1.34.95l1.59,1.13,4.43-5.24-.7-.77c-4.09-4.48-11.78-6.92-17.89-5.69-3.7.75-6.64,2.48-8.74,5.16-2.22,2.83-2.98,6.28-2.07,9.45.83,2.92,3.02,5.22,5.98,6.29,1.5.55,3.22.91,5.25,1.11,1.4.14,2.8.17,4.16.21.97.02,1.97.05,2.94.11,1.85.12,3.18.63,3.94,1.52.62.72.88,1.74.76,3.02-.12,1.32-.83,2.31-2.31,3.21-3.68,2.24-9.69,1.89-13.98-.8-.8-.5-2.06-1.48-2.95-2.58l-.82-1.01-5.17,5.09.74.84c4.28,4.85,9.82,7.45,15.78,7.45.68,0,1.37-.03,2.07-.1,4.44-.44,7.9-1.83,10.58-4.26,3.32-3,4.4-7.06,3.23-12.06Z"/>
        </g>
      </g>
      <g>
        <polygon class="cls-2" points="24.18 13.36 16.63 20.91 33.25 37.54 16.63 54.16 24.18 61.72 48.36 37.54 24.18 13.36"/>
        <g>
          <rect class="cls-1" x="3.39" y="29.36" width="16.36" height="16.36" transform="translate(-23.16 19.17) rotate(-45)"/>
          <polygon class="cls-1" points="37.05 .48 29.57 7.97 59.14 37.54 29.57 67.11 37.05 74.59 74.11 37.54 37.05 .48"/>
        </g>
      </g>
    </g>
  </g>
</svg>