<?xml version="1.0" encoding="UTF-8"?>
<svg id="Layer_1" xmlns="http://www.w3.org/2000/svg" version="1.1" xmlns:xlink="http://www.w3.org/1999/xlink" viewBox="0 0 50 50">
  <!-- Generator: Adobe Illustrator 29.3.1, SVG Export Plug-In . SVG Version: 2.1.0 Build 151)  -->
  <defs>
    <style>
      .st0 {
        fill: #005d6c;
        fill-rule: evenodd;
      }
    </style>
  </defs>
  <g id="Shape_5">
    <path class="st0" d="M25.9,3.5C14.5,3.5,5.4,13.6,5.4,25.2s9.1,21.3,20.5,21.3,21-9.7,21-21.3S37.4,3.5,25.9,3.5ZM24,42c-7.9-1.3-14.6-8.6-14.6-16.8s.4-2.9.4-4.1l10.2,10.2v2.1c0,2.5,1.6,4.5,4,4.5v4.1ZM38.2,36.7c-.4-1.7-2-3.3-4-3.3h-1.9v-6.1c0-1.3-.8-2.1-2-2.1h-12.6v-4.5h4.3c1.2,0,2-.8,2-2v-4.5h3.9c2.4,0,4.4-1.6,4.4-4.1v-.8c5.9,2.4,10.2,8.5,10.2,16s-1.5,8.2-4.3,11.5Z"/>
  </g>
</svg>