<?xml version="1.0" encoding="UTF-8"?>
<svg id="Layer_1" xmlns="http://www.w3.org/2000/svg" version="1.1" viewBox="0 0 50 50">
  <!-- Generator: Adobe Illustrator 29.3.1, SVG Export Plug-In . SVG Version: 2.1.0 Build 151)  -->
  <defs>
    <style>
      .st0 {
        fill: #005d6c;
        fill-rule: evenodd;
      }
    </style>
  </defs>
  <g id="Shape_7">
    <path class="st0" d="M43.1,33.7c-2.6,0-5.6-.4-7.8-1.4-.8-.4-1.8-.4-2.6.4l-4.8,5c-6.6-3.2-11.8-8.7-15.2-15.6l5.2-5.5c.4-.4.8-1.4.4-2.3-.8-2.7-1.3-5.5-1.3-8.7s-.8-2.3-2.1-2.3h-7.9c-1.3,0-2.6.9-2.6,2.3,0,22.9,17.4,40.8,38.8,40.8s2.6-1,2.6-2.3v-8.2c0-1.4-.8-2.3-2.6-2.3Z"/>
  </g>
</svg>